HIERARCHY
ROOT Hips
{
	OFFSET 0.000000 71.427986 0.000000
	CHANNELS 6 Xposition Yposition Zposition Xrotation Yrotation Zrotation
	JOINT Pelvis
	{
		OFFSET 0.000000 0.000000 0.000000
		CHANNELS 3 Xrotation Yrotation Zrotation
		JOINT LeftUpLeg
		{
			OFFSET 6.797100 -2.508499 -1.318700
			CHANNELS 3 Xrotation Yrotation Zrotation
			JOINT LeftLeg
			{
				OFFSET 0.069008 -29.241863 0.690200
				CHANNELS 3 Xrotation Yrotation Zrotation
				JOINT LeftFoot
				{
					OFFSET -0.069008 -29.568123 -0.266800
					CHANNELS 3 Xrotation Yrotation Zrotation
					JOINT LeftToeBase
					{
						OFFSET 3.145500 -8.631000 16.059900
						CHANNELS 3 Xrotation Yrotation Zrotation
						End Site
						{
							OFFSET 0.000000 18.501587 0.000000
						}
					}
				}
			}
			JOINT Left_ShortSleeve
			{
				OFFSET 0.265923 -10.480953 1.153800
				CHANNELS 3 Xrotation Yrotation Zrotation
				End Site
				{
					OFFSET 1.725763 19.823879 0.000000
				}
			}
		}
		JOINT RightUpLeg
		{
			OFFSET -6.797100 -2.508499 -1.318700
			CHANNELS 3 Xrotation Yrotation Zrotation
			JOINT RightLeg
			{
				OFFSET -0.082453 -29.241932 0.688000
				CHANNELS 3 Xrotation Yrotation Zrotation
				JOINT RightFoot
				{
					OFFSET 0.082453 -29.568058 -0.264600
					CHANNELS 3 Xrotation Yrotation Zrotation
					JOINT RightToeBase
					{
						OFFSET -3.115300 -8.682800 16.113400
						CHANNELS 3 Xrotation Yrotation Zrotation
						End Site
						{
							OFFSET 0.000000 18.567114 0.000000
						}
					}
				}
			}
			JOINT Right_ShortSleeve
			{
				OFFSET -0.265923 -10.480953 1.153800
				CHANNELS 3 Xrotation Yrotation Zrotation
				End Site
				{
					OFFSET -1.725766 19.823910 0.000000
				}
			}
		}
	}
	JOINT Spine
	{
		OFFSET 0.000000 13.368103 0.470500
		CHANNELS 3 Xrotation Yrotation Zrotation
		JOINT Spine1
		{
			OFFSET 0.147000 13.837402 0.538800
			CHANNELS 3 Xrotation Yrotation Zrotation
			JOINT Spine2
			{
				OFFSET 0.168000 16.242897 -1.435500
				CHANNELS 3 Xrotation Yrotation Zrotation
				JOINT Neck
				{
					OFFSET 0.217200 18.631500 -1.679100
					CHANNELS 3 Xrotation Yrotation Zrotation
					JOINT Head
					{
						OFFSET 0.000000 6.599396 1.385900
						CHANNELS 3 Xrotation Yrotation Zrotation
						JOINT Hat
						{
							OFFSET -0.532200 27.220596 -10.096100
							CHANNELS 3 Xrotation Yrotation Zrotation
							End Site
							{
								OFFSET 0.000000 22.029861 0.000000
							}
						}
						JOINT HairD
						{
							OFFSET -10.777400 17.437393 -1.325900
							CHANNELS 3 Xrotation Yrotation Zrotation
							JOINT HairD1
							{
								OFFSET -3.290299 -11.051193 1.062200
								CHANNELS 3 Xrotation Yrotation Zrotation
								End Site
								{
									OFFSET 0.000000 11.579437 0.000000
								}
							}
						}
						JOINT HairB
						{
							OFFSET -10.777400 17.437393 1.467900
							CHANNELS 3 Xrotation Yrotation Zrotation
							JOINT HairB1
							{
								OFFSET -1.561200 -12.956299 3.590200
								CHANNELS 3 Xrotation Yrotation Zrotation
								End Site
								{
									OFFSET 0.000000 13.534866 0.000000
								}
							}
						}
						JOINT HairA
						{
							OFFSET 9.713100 17.437393 1.467900
							CHANNELS 3 Xrotation Yrotation Zrotation
							JOINT HairA1
							{
								OFFSET 1.561200 -12.956299 3.590200
								CHANNELS 3 Xrotation Yrotation Zrotation
								End Site
								{
									OFFSET 0.000000 13.534866 0.000000
								}
							}
						}
						JOINT HairC
						{
							OFFSET 9.713100 17.437393 -1.325900
							CHANNELS 3 Xrotation Yrotation Zrotation
							JOINT HairC1
							{
								OFFSET 3.290300 -11.051193 1.062200
								CHANNELS 3 Xrotation Yrotation Zrotation
								End Site
								{
									OFFSET 0.000000 11.579437 0.000000
								}
							}
						}
					}
				}
				JOINT LeftShoulder
				{
					OFFSET 5.101800 15.108002 -2.763700
					CHANNELS 3 Xrotation Yrotation Zrotation
					JOINT LeftArm
					{
						OFFSET 9.825497 2.506317 -1.597400
						CHANNELS 3 Xrotation Yrotation Zrotation
						JOINT LeftForeArm
						{
							OFFSET 21.966244 0.000000 0.000000
							CHANNELS 3 Xrotation Yrotation Zrotation
							JOINT LeftHand
							{
								OFFSET 33.879036 0.000000 0.000000
								CHANNELS 3 Xrotation Yrotation Zrotation
								JOINT LeftHandThumb1
								{
									OFFSET 6.715286 -2.359680 3.363841
									CHANNELS 3 Xrotation Yrotation Zrotation
									JOINT LeftHandThumb2
									{
										OFFSET 2.507072 -1.447464 1.447461
										CHANNELS 3 Xrotation Yrotation Zrotation
										JOINT LeftHandThumb3
										{
											OFFSET 2.898338 -1.673355 1.673357
											CHANNELS 3 Xrotation Yrotation Zrotation
											End Site
											{
												OFFSET -0.295959 3.727692 -0.131651
											}
										}
									}
								}
								JOINT LeftHandIndex1
								{
									OFFSET 14.190811 -0.254547 3.840278
									CHANNELS 3 Xrotation Yrotation Zrotation
									JOINT LeftHandIndex2
									{
										OFFSET 3.551727 0.000000 -0.000000
										CHANNELS 3 Xrotation Yrotation Zrotation
										JOINT LeftHandIndex3
										{
											OFFSET 2.894196 0.000000 0.000000
											CHANNELS 3 Xrotation Yrotation Zrotation
											End Site
											{
												OFFSET -1.000603 2.690872 0.366626
											}
										}
									}
								}
								JOINT LeftHandMiddle1
								{
									OFFSET 13.776489 0.000000 0.000000
									CHANNELS 3 Xrotation Yrotation Zrotation
									JOINT LeftHandMiddle2
									{
										OFFSET 3.438232 0.000000 0.000000
										CHANNELS 3 Xrotation Yrotation Zrotation
										JOINT LeftHandMiddle3
										{
											OFFSET 3.691551 0.000000 0.000000
											CHANNELS 3 Xrotation Yrotation Zrotation
											End Site
											{
												OFFSET -1.082298 3.499527 0.457670
											}
										}
									}
								}
								JOINT LeftHandRing1
								{
									OFFSET 13.966164 -0.268127 -3.067488
									CHANNELS 3 Xrotation Yrotation Zrotation
									JOINT LeftHandRing2
									{
										OFFSET 3.162567 0.000000 0.000000
										CHANNELS 3 Xrotation Yrotation Zrotation
										JOINT LeftHandRing3
										{
											OFFSET 3.324348 0.000000 0.000000
											CHANNELS 3 Xrotation Yrotation Zrotation
											End Site
											{
												OFFSET -0.861900 3.184998 0.405154
											}
										}
									}
								}
								JOINT LeftHandPinky1
								{
									OFFSET 13.131393 -0.168503 -5.746925
									CHANNELS 3 Xrotation Yrotation Zrotation
									JOINT LeftHandPinky2
									{
										OFFSET 2.849182 0.000000 0.000000
										CHANNELS 3 Xrotation Yrotation Zrotation
										JOINT LeftHandPinky3
										{
											OFFSET 2.805038 0.000000 0.000000
											CHANNELS 3 Xrotation Yrotation Zrotation
											End Site
											{
												OFFSET -0.882500 2.642609 0.325652
											}
										}
									}
								}
							}
							JOINT Left_Sleeve
							{
								OFFSET 6.592125 -0.646545 0.805568
								CHANNELS 3 Xrotation Yrotation Zrotation
								End Site
								{
									OFFSET -0.000179 20.275787 -0.000000
								}
							}
						}
					}
				}
				JOINT RightShoulder
				{
					OFFSET -5.731700 15.108002 -2.763700
					CHANNELS 3 Xrotation Yrotation Zrotation
					JOINT RightArm
					{
						OFFSET -9.825497 2.506317 -1.597400
						CHANNELS 3 Xrotation Yrotation Zrotation
						JOINT RightForeArm
						{
							OFFSET -21.966242 0.000000 0.000000
							CHANNELS 3 Xrotation Yrotation Zrotation
							JOINT RightHand
							{
								OFFSET -33.879032 0.000000 0.000000
								CHANNELS 3 Xrotation Yrotation Zrotation
								JOINT RightHandThumb1
								{
									OFFSET -6.715286 -2.359680 3.363841
									CHANNELS 3 Xrotation Yrotation Zrotation
									JOINT RightHandThumb2
									{
										OFFSET -2.507072 -1.447464 1.447461
										CHANNELS 3 Xrotation Yrotation Zrotation
										JOINT RightHandThumb3
										{
											OFFSET -2.898338 -1.673355 1.673357
											CHANNELS 3 Xrotation Yrotation Zrotation
											End Site
											{
												OFFSET 0.295959 3.727692 -0.131651
											}
										}
									}
								}
								JOINT RightHandIndex1
								{
									OFFSET -14.190811 -0.254547 3.840278
									CHANNELS 3 Xrotation Yrotation Zrotation
									JOINT RightHandIndex2
									{
										OFFSET -3.551727 0.000000 -0.000000
										CHANNELS 3 Xrotation Yrotation Zrotation
										JOINT RightHandIndex3
										{
											OFFSET -2.894196 0.000000 0.000000
											CHANNELS 3 Xrotation Yrotation Zrotation
											End Site
											{
												OFFSET 1.000603 2.690872 0.366626
											}
										}
									}
								}
								JOINT RightHandMiddle1
								{
									OFFSET -13.776489 0.000000 0.000000
									CHANNELS 3 Xrotation Yrotation Zrotation
									JOINT RightHandMiddle2
									{
										OFFSET -3.438232 0.000000 0.000000
										CHANNELS 3 Xrotation Yrotation Zrotation
										JOINT RightHandMiddle3
										{
											OFFSET -3.691551 0.000000 0.000000
											CHANNELS 3 Xrotation Yrotation Zrotation
											End Site
											{
												OFFSET 1.082298 3.499527 0.457670
											}
										}
									}
								}
								JOINT RightHandRing1
								{
									OFFSET -13.966164 -0.268127 -3.067488
									CHANNELS 3 Xrotation Yrotation Zrotation
									JOINT RightHandRing2
									{
										OFFSET -3.162567 0.000000 0.000000
										CHANNELS 3 Xrotation Yrotation Zrotation
										JOINT RightHandRing3
										{
											OFFSET -3.324348 0.000000 0.000000
											CHANNELS 3 Xrotation Yrotation Zrotation
											End Site
											{
												OFFSET 0.861900 3.184998 0.405154
											}
										}
									}
								}
								JOINT RightHandPinky1
								{
									OFFSET -13.131393 -0.168503 -5.746925
									CHANNELS 3 Xrotation Yrotation Zrotation
									JOINT RightHandPinky2
									{
										OFFSET -2.849182 0.000000 0.000000
										CHANNELS 3 Xrotation Yrotation Zrotation
										JOINT RightHandPinky3
										{
											OFFSET -2.805038 0.000000 0.000000
											CHANNELS 3 Xrotation Yrotation Zrotation
											End Site
											{
												OFFSET 0.882500 2.642609 0.325652
											}
										}
									}
								}
							}
							JOINT Right_Sleeve
							{
								OFFSET -6.592125 -0.646545 0.805568
								CHANNELS 3 Xrotation Yrotation Zrotation
								End Site
								{
									OFFSET 0.000179 20.275787 -0.000000
								}
							}
						}
					}
				}
				JOINT Bind_Right_JacketString
				{
					OFFSET -3.534800 11.969597 7.200700
					CHANNELS 3 Xrotation Yrotation Zrotation
					JOINT Bind_Right_JacketString1
					{
						OFFSET -0.319900 -6.102600 2.794100
						CHANNELS 3 Xrotation Yrotation Zrotation
						End Site
						{
							OFFSET 0.000000 6.719452 0.000000
						}
					}
				}
				JOINT Bind_Left_JacketString
				{
					OFFSET 2.904800 11.969597 7.200700
					CHANNELS 3 Xrotation Yrotation Zrotation
					JOINT Bind_Left_JacketString1
					{
						OFFSET 0.364800 -5.904503 3.186800
						CHANNELS 3 Xrotation Yrotation Zrotation
						End Site
						{
							OFFSET 0.000000 6.719513 0.000000
						}
					}
				}
				JOINT HairE
				{
					OFFSET 5.915200 17.612701 -11.592200
					CHANNELS 3 Xrotation Yrotation Zrotation
					JOINT HairE1
					{
						OFFSET 0.289200 -7.171898 -1.284500
						CHANNELS 3 Xrotation Yrotation Zrotation
						End Site
						{
							OFFSET 0.000000 7.291756 0.000000
						}
					}
				}
				JOINT HairF
				{
					OFFSET -0.864800 17.612701 -11.592200
					CHANNELS 3 Xrotation Yrotation Zrotation
					JOINT HairF1
					{
						OFFSET 0.000000 -14.087097 -2.127501
						CHANNELS 3 Xrotation Yrotation Zrotation
						End Site
						{
							OFFSET 0.000000 14.246841 0.000000
						}
					}
				}
				JOINT HairG
				{
					OFFSET -8.087700 17.612701 -11.592200
					CHANNELS 3 Xrotation Yrotation Zrotation
					JOINT HairG1
					{
						OFFSET -0.293600 -6.081398 -0.910100
						CHANNELS 3 Xrotation Yrotation Zrotation
						End Site
						{
							OFFSET 0.000000 6.156120 0.000000
						}
					}
				}
			}
		}
	}
	JOINT Pouch
	{
		OFFSET 0.000000 4.394501 10.847300
		CHANNELS 3 Xrotation Yrotation Zrotation
		End Site
		{
			OFFSET 0.000000 21.880577 0.000000
		}
	}
	JOINT Bag
	{
		OFFSET -13.229000 4.813004 -0.593300
		CHANNELS 3 Xrotation Yrotation Zrotation
		End Site
		{
			OFFSET 0.000000 21.880577 0.000000
		}
	}
	JOINT OccupyGuyFacialAnim_Joint
	{
		OFFSET 1.000000 -70.206398 -1.655000
		CHANNELS 3 Xrotation Yrotation Zrotation
		End Site
		{
			OFFSET 0.000000 21.880577 0.000000
		}
	}
}
MOTION
Frames: 4
Frame Time: 0.016667
0.902323 57.512939 -61.511513 35.531102 -68.915079 27.450267 -0.000001 -0.000000 -0.000001 -58.351221 -18.043321 22.101550 46.002560 0.938954 11.098631 8.130965 1.604605 -6.802729 0.000000 0.000001 -0.000003 0.000001 0.000001 -0.000000 -28.492744 5.822086 -19.557478 53.869231 -7.502416 -2.768584 -12.474944 -29.447497 33.124867 0.000000 -0.000002 -0.000000 0.000002 0.000000 -0.000002 0.675830 9.658232 -2.927822 -1.602549 6.808456 -2.710774 -1.615873 2.233988 1.483568 13.856777 5.273901 -5.005351 3.706269 16.403032 6.692204 -0.000000 0.000000 0.000001 -0.000000 0.000000 0.000001 -0.000000 0.000000 0.000001 -0.000000 0.000000 0.000001 -0.000001 0.000002 -0.000001 -0.000000 0.000000 0.000001 -0.000001 0.000002 -0.000001 -0.000000 0.000000 0.000001 -0.000000 0.000000 0.000001 4.053408 5.979544 -12.991228 -54.011609 -35.171690 -50.958573 -0.000000 -82.344774 0.000006 -61.076870 33.044373 41.897733 -14.557471 10.837963 12.229973 0.749534 -4.257873 13.305488 0.000000 -0.000001 0.000001 -0.809535 2.578179 -31.496441 3.095893 5.163752 -61.866959 0.000001 0.000001 -0.000003 -2.430837 1.729221 -41.460911 2.952347 5.084722 -60.259931 0.000000 -0.000001 0.000002 -6.054120 -0.166617 -49.857567 3.046240 5.137035 -61.313952 0.000000 0.000002 -0.000005 -8.298311 -6.522649 -38.520150 2.848783 5.024397 -59.084408 -0.000000 0.000000 -0.000001 -0.000001 0.000001 -0.000001 -14.532553 3.553458 -4.417811 79.542211 138.739092 -57.059725 -0.000004 34.452936 0.000000 -53.561384 -12.490274 -34.496646 8.377137 -4.904143 11.021993 21.620190 -18.183886 -18.379202 -0.000001 -0.000001 0.000000 0.558933 -4.406592 25.436651 1.653021 -3.560326 49.799111 0.000000 -0.000001 0.000004 10.969817 -12.875573 52.800825 6.387571 -4.324410 111.833686 0.000002 0.000001 -0.000002 3.705065 -7.151301 57.622454 5.328218 -4.608693 98.293437 -0.000001 -0.000000 -0.000000 0.474822 -5.172997 58.987658 3.194334 -4.421923 71.674154 -0.000001 0.000001 -0.000001 0.000001 -0.000001 0.000001 -0.000000 0.000000 0.000000 0.000000 0.000000 -0.000000 -0.000000 0.000000 0.000000 -0.000000 0.000000 0.000000 -0.000000 0.000000 0.000000 0.000000 0.000000 -0.000000 -0.000000 0.000000 0.000000 -0.000000 0.000000 0.000000 -0.000000 0.000000 0.000000 0.000000 0.000000 -0.000000 -0.000001 -0.000000 -0.000001 -0.000001 -0.000000 -0.000001 -0.000001 -0.000000 -0.000001 
1.233583 57.962158 -63.960915 34.484918 -68.084801 25.908827 -0.000000 -0.000001 -0.000000 -58.956219 -16.757167 21.422099 42.923644 1.043165 11.072652 10.816629 1.175647 -5.311864 -0.000001 -0.000002 -0.000003 -0.000001 0.000000 -0.000003 -30.603455 3.759672 -19.126674 55.661199 -8.476501 0.100060 -14.696953 -27.023647 31.711680 -0.000000 -0.000001 -0.000000 0.000000 0.000003 -0.000002 0.623240 8.661849 -2.047930 -1.626989 6.164445 -2.467201 -1.632767 1.585593 1.723309 13.643999 5.603240 -5.278003 3.496009 17.228927 6.531502 -0.000000 -0.000003 0.000000 -0.000000 -0.000003 0.000000 -0.000000 -0.000003 -0.000000 -0.000000 -0.000003 -0.000000 -0.000002 0.000000 -0.000000 -0.000000 -0.000003 -0.000000 -0.000002 0.000000 -0.000000 -0.000000 -0.000003 0.000000 -0.000000 -0.000003 0.000000 3.999906 6.042620 -12.807240 -53.296021 -34.622977 -51.004414 -0.000506 -82.387798 -0.000539 -60.568232 31.239158 41.384147 -14.557469 10.837966 12.229977 0.749533 -4.257875 13.305484 0.000001 -0.000000 -0.000001 -0.809532 2.578176 -31.496434 3.095891 5.163752 -61.866952 0.000001 -0.000001 -0.000004 -2.430836 1.729219 -41.460915 2.952346 5.084724 -60.259938 -0.000000 0.000001 0.000006 -6.054120 -0.166620 -49.857563 3.046238 5.137033 -61.313946 -0.000000 -0.000001 -0.000003 -8.298307 -6.522652 -38.520146 2.848783 5.024394 -59.084401 -0.000000 -0.000001 0.000003 0.000000 0.000001 -0.000002 -14.624217 3.283241 -4.768789 77.652667 137.993481 -55.679907 0.000001 33.172207 0.000001 -53.616261 -11.197027 -33.722690 8.377140 -4.904145 11.021993 21.620190 -18.183888 -18.379202 -0.000001 0.000000 0.000004 0.558931 -4.406593 25.436651 1.653021 -3.560326 49.799114 -0.000000 0.000000 0.000000 10.969817 -12.875576 52.800815 6.387571 -4.324410 111.833686 -0.000001 0.000001 -0.000008 3.705066 -7.151302 57.622447 5.328218 -4.608691 98.293437 -0.000000 -0.000001 -0.000003 0.474822 -5.172998 58.987658 3.194335 -4.421925 71.674154 -0.000001 0.000001 0.000001 -0.000000 -0.000000 0.000000 -0.000001 -0.000000 0.000000 -0.000001 -0.000000 -0.000000 -0.000001 -0.000000 0.000000 -0.000001 -0.000000 0.000000 -0.000001 -0.000000 0.000000 -0.000001 -0.000000 0.000000 -0.000001 -0.000000 0.000000 -0.000001 -0.000000 0.000000 -0.000001 -0.000000 0.000000 -0.000001 -0.000000 0.000000 -0.000000 -0.000001 -0.000000 -0.000000 -0.000001 -0.000000 -0.000000 -0.000001 -0.000000 
1.584861 58.433105 -66.318924 33.492178 -67.151893 24.288190 0.000000 0.000001 0.000000 -60.019994 -14.998848 20.402876 40.817876 0.613829 10.935007 12.492522 0.528511 -5.244673 0.000000 0.000001 -0.000000 0.000000 0.000000 -0.000000 -32.220827 1.179341 -19.125385 56.724007 -9.744117 3.346764 -16.594290 -23.609771 30.241346 0.000000 -0.000002 -0.000000 0.000001 0.000000 -0.000001 0.612147 7.764074 -1.038283 -1.619449 5.518450 -2.231737 -1.616520 0.925565 1.956719 13.288391 5.956512 -5.383661 2.808265 18.062143 6.550449 -0.000000 -0.000001 0.000000 -0.000000 -0.000001 0.000000 -0.000000 -0.000001 -0.000000 -0.000000 -0.000001 -0.000000 -0.000001 -0.000001 -0.000000 -0.000000 -0.000001 -0.000000 -0.000001 -0.000001 -0.000000 -0.000000 -0.000001 0.000000 -0.000000 -0.000001 0.000000 3.900271 5.904410 -12.522479 -52.948692 -33.982817 -50.979863 0.000483 -82.394095 0.000513 -59.827416 29.409145 40.746989 -14.557469 10.837967 12.229969 0.749536 -4.257873 13.305491 -0.000001 -0.000000 -0.000001 -0.809535 2.578179 -31.496441 3.095891 5.163752 -61.866959 0.000003 0.000001 -0.000002 -2.430836 1.729221 -41.460911 2.952350 5.084720 -60.259931 0.000001 0.000000 0.000006 -6.054120 -0.166616 -49.857563 3.046236 5.137034 -61.313952 -0.000000 0.000000 0.000002 -8.298305 -6.522648 -38.520150 2.848783 5.024398 -59.084401 0.000001 0.000001 -0.000001 -0.000000 0.000002 0.000002 -14.701921 3.010207 -5.023189 75.541127 137.547716 -54.314621 -0.000000 31.733165 0.000009 -53.364989 -9.666788 -32.827600 8.377137 -4.904145 11.021986 21.620185 -18.183885 -18.379206 0.000001 0.000003 0.000002 0.558931 -4.406593 25.436646 1.653022 -3.560325 49.799118 -0.000000 0.000000 -0.000003 10.969817 -12.875573 52.800815 6.387571 -4.324412 111.833686 0.000001 -0.000001 0.000001 3.705065 -7.151302 57.622447 5.328216 -4.608693 98.293437 0.000001 0.000000 -0.000002 0.474822 -5.172998 58.987665 3.194335 -4.421923 71.674161 -0.000001 0.000000 0.000001 0.000002 -0.000000 0.000001 -0.000000 0.000002 -0.000000 -0.000000 0.000000 -0.000001 -0.000000 0.000002 -0.000001 -0.000000 0.000002 -0.000001 -0.000000 0.000002 -0.000000 -0.000000 0.000000 -0.000000 -0.000000 0.000002 -0.000001 -0.000000 0.000002 -0.000001 -0.000000 0.000002 -0.000000 -0.000000 0.000000 -0.000000 0.000000 0.000001 0.000000 0.000000 0.000001 0.000000 0.000000 0.000001 0.000000 
1.916362 58.911423 -68.585915 32.874073 -66.365192 23.118987 0.000000 0.000002 -0.000001 -61.536562 -13.066027 18.957197 40.625125 -0.182809 10.683843 13.005622 -0.073248 -6.367052 -0.000000 0.000001 -0.000000 0.000000 -0.000000 -0.000002 -34.495720 -1.835025 -18.004855 58.222411 -9.821738 3.788134 -18.201389 -22.253723 27.491436 0.000000 0.000000 -0.000000 -0.000000 -0.000001 0.000000 0.643120 7.086020 -0.202992 -1.604751 4.974510 -2.071097 -1.594768 0.362933 2.116384 12.920242 6.278293 -5.327308 1.884691 18.797656 6.755084 -0.000000 0.000001 -0.000000 -0.000000 0.000001 -0.000000 -0.000000 0.000001 -0.000001 -0.000000 0.000001 -0.000000 -0.000000 0.000000 0.000002 -0.000000 0.000001 -0.000000 -0.000000 0.000000 0.000002 -0.000000 0.000001 -0.000000 -0.000000 0.000001 -0.000000 3.777935 5.614932 -12.196082 -52.876476 -33.357141 -50.874500 -0.000269 -82.402913 -0.000261 -59.121202 27.942195 40.166683 -14.557469 10.837965 12.229976 0.749533 -4.257875 13.305484 0.000004 -0.000000 -0.000000 -0.809535 2.578177 -31.496437 3.095892 5.163753 -61.866959 -0.000001 -0.000001 0.000001 -2.430836 1.729219 -41.460911 2.952350 5.084722 -60.259931 0.000001 0.000000 -0.000005 -6.054119 -0.166618 -49.857563 3.046238 5.137034 -61.313959 -0.000001 0.000002 0.000001 -8.298308 -6.522651 -38.520150 2.848779 5.024394 -59.084401 -0.000000 -0.000003 -0.000003 0.000002 0.000004 0.000002 -14.751597 2.757335 -5.115946 73.753906 137.448145 -53.227586 0.000008 30.448857 0.000002 -52.877904 -8.315515 -32.047750 8.377138 -4.904144 11.021992 21.620190 -18.183888 -18.379204 -0.000003 0.000000 -0.000000 0.558934 -4.406592 25.436647 1.653023 -3.560326 49.799107 0.000001 -0.000000 -0.000002 10.969818 -12.875575 52.800815 6.387571 -4.324407 111.833686 0.000000 0.000000 -0.000001 3.705066 -7.151302 57.622447 5.328216 -4.608691 98.293430 0.000001 -0.000000 -0.000001 0.474823 -5.172997 58.987652 3.194334 -4.421924 71.674154 -0.000002 0.000000 0.000001 -0.000001 -0.000001 -0.000000 0.000000 -0.000001 -0.000000 0.000000 0.000000 -0.000001 0.000000 -0.000001 0.000000 0.000000 -0.000001 0.000000 0.000000 -0.000001 -0.000000 0.000000 0.000000 -0.000000 0.000000 -0.000001 0.000000 0.000000 -0.000001 0.000000 0.000000 -0.000001 -0.000000 0.000000 0.000000 -0.000000 0.000000 0.000002 -0.000001 0.000000 0.000002 -0.000001 0.000000 0.000002 -0.000001 
